<svg xmlns="http://www.w3.org/2000/svg" xmlns:xlink="http://www.w3.org/1999/xlink" version="1.1" x="0px" y="0px" viewBox="0 0 100 100" style="enable-background:new 0 0 100 100;" xml:space="preserve"><g><path d="M50,0C22.39,0,0,22.382,0,49.999C0,77.61,22.39,100,50,100c27.617,0,50-22.39,50-50.001C100,22.382,77.617,0,50,0z    M76.289,62.903c0,0.787-0.638,1.426-1.419,1.426H58.262v4.974h11.816c0.781,0,1.419,0.638,1.419,1.426v4.134   c0,0.781-0.638,1.426-1.419,1.426H29.921c-0.779,0-1.425-0.645-1.425-1.426v-4.134c0-0.788,0.646-1.426,1.425-1.426h11.818v-4.974   H25.13c-0.787,0-1.425-0.639-1.425-1.426V25.956c0-0.781,0.638-1.426,1.425-1.426h49.74c0.781,0,1.419,0.645,1.419,1.426V62.903z"></path><path d="M67.761,31.64H32.233c-0.781,0-1.42,0.638-1.42,1.419v22.742c0,0.781,0.639,1.425,1.42,1.425h35.527   c0.781,0,1.426-0.644,1.426-1.425V33.059C69.187,32.277,68.542,31.64,67.761,31.64z"></path></g></svg>