<svg xmlns="http://www.w3.org/2000/svg" xmlns:xlink="http://www.w3.org/1999/xlink" version="1.1" x="0px" y="0px" viewBox="0 0 100 100" enable-background="new 0 0 100 100" xml:space="preserve"><g><g><g><defs><rect id="w" x="24.774" y="19.771" width="50.451" height="60.459"></rect></defs><clipPath><use xlink:href="#w" overflow="visible"></use></clipPath></g><g><defs><rect id="v" x="24.774" y="19.771" width="50.451" height="60.459"></rect></defs><clipPath id="u"><use xlink:href="#v" overflow="visible"></use></clipPath><g clip-path="url(#u)"><path fill="#000000" d="M42.081,80.229h-0.002c-1.587,0-2.88-1.291-2.882-2.877l-0.002-5.959      c-5.37-1.182-8.651-4.85-8.653-9.808l-0.001-1.442L29.1,60.145c-2.385,0-4.324-1.938-4.325-4.321      c0-0.623-0.001-0.908,4.32-12.074l-0.001-0.902c-0.002-6.153,2.397-11.944,6.758-16.307c4.359-4.363,10.148-6.767,16.3-6.769      c12.724,0,23.07,10.343,23.074,23.057c0.002,4.857-1.49,9.486-4.32,13.423l0.008,21.086c0,1.587-1.291,2.881-2.877,2.886      L42.081,80.229z M42.079,77.229v1.5V77.229L42.079,77.229z M32.041,57.143c0.397,0,0.779,0.158,1.061,0.439      c0.282,0.281,0.439,0.662,0.439,1.061l0.001,2.943c0.002,5.461,5.146,6.76,7.358,7.066c0.742,0.102,1.295,0.736,1.295,1.483      l0.002,7.093l25.716-0.008l-0.009-21.464c0-0.323,0.105-0.642,0.302-0.901c2.632-3.498,4.021-7.657,4.021-12.027      c-0.004-11.06-9.004-20.058-20.064-20.058c-5.359,0.001-10.395,2.093-14.188,5.889c-3.794,3.796-5.882,8.833-5.88,14.185      l0.001,1.183c0,0.186-0.034,0.369-0.101,0.542C31,47.135,28.009,54.863,27.775,55.861c0.026,0.716,0.609,1.281,1.322,1.281      H32.041L32.041,57.143z"></path></g></g></g><g><path fill="#000000" d="M49.116,55.592c-0.162,0-0.324-0.039-0.472-0.117l-9.083-4.858c-0.325-0.174-0.528-0.514-0.528-0.882    v-6.997c0-0.552,0.447-1,1-1c0.552,0,1,0.448,1,1v6.398l8.083,4.323l8.081-4.323v-6.398c0-0.552,0.449-1,1-1c0.554,0,1,0.448,1,1    v6.997c0,0.368-0.202,0.708-0.526,0.882l-9.084,4.858C49.44,55.553,49.278,55.592,49.116,55.592z"></path></g><g><path fill="#000000" d="M64.298,45.855c-0.553,0-1-0.448-1-1V35.99l-11.133-6.026L41.033,35.99v8.865c0,0.552-0.447,1-1,1    c-0.552,0-1-0.448-1-1v-9.461c0-0.367,0.201-0.704,0.524-0.879l12.132-6.568c0.297-0.16,0.654-0.16,0.951,0l12.133,6.568    c0.322,0.175,0.523,0.512,0.523,0.879v9.461C65.298,45.407,64.85,45.855,64.298,45.855z"></path></g><g><path fill="#000000" d="M52.197,41.829c-0.551,0-1-0.447-1-1v-4.112l-5.512-2.985c-0.486-0.263-0.667-0.87-0.403-1.355    c0.263-0.485,0.869-0.667,1.355-0.403l6.037,3.269c0.322,0.175,0.523,0.512,0.523,0.879v4.708    C53.197,41.382,52.751,41.829,52.197,41.829z"></path></g><g><path fill="#000000" d="M42.262,51.82c-0.35,0-0.688-0.185-0.872-0.51c-0.271-0.481-0.1-1.093,0.381-1.361l3.255-1.83v-2.463    c0-0.553,0.447-1,1-1c0.552,0,1,0.447,1,1v3.048c0,0.361-0.195,0.694-0.51,0.871l-3.765,2.116    C42.597,51.779,42.428,51.82,42.262,51.82z"></path></g><g><g><defs><rect id="t" x="24.774" y="19.771" width="50.451" height="60.459"></rect></defs><clipPath id="s"><use xlink:href="#t" overflow="visible"></use></clipPath><g clip-path="url(#s)"><path fill="#000000" d="M52.044,45.584c1.039,0,1.884-0.842,1.884-1.882c0-1.039-0.845-1.882-1.884-1.882      s-1.882,0.843-1.882,1.882C50.162,44.742,51.005,45.584,52.044,45.584"></path></g></g><g><defs><rect id="r" x="24.774" y="19.771" width="50.451" height="60.459"></rect></defs><clipPath id="q"><use xlink:href="#r" overflow="visible"></use></clipPath><g clip-path="url(#q)"><path fill="#000000" d="M52.044,46.584c-1.589,0-2.882-1.292-2.882-2.882c0-1.589,1.293-2.882,2.882-2.882      c1.59,0,2.884,1.293,2.884,2.882C54.928,45.292,53.634,46.584,52.044,46.584z M52.044,42.82c-0.485,0-0.882,0.396-0.882,0.882      c0,0.486,0.396,0.882,0.882,0.882s0.884-0.396,0.884-0.882C52.928,43.216,52.529,42.82,52.044,42.82z"></path></g></g><g><defs><rect id="p" x="24.774" y="19.771" width="50.451" height="60.459"></rect></defs><clipPath id="o"><use xlink:href="#p" overflow="visible"></use></clipPath><g clip-path="url(#o)"><path fill="#000000" d="M58.062,45.584c1.039,0,1.883-0.842,1.883-1.882c0-1.039-0.844-1.882-1.883-1.882      s-1.881,0.843-1.881,1.882C56.182,44.742,57.023,45.584,58.062,45.584"></path></g></g><g><defs><rect id="n" x="24.774" y="19.771" width="50.451" height="60.459"></rect></defs><clipPath id="m"><use xlink:href="#n" overflow="visible"></use></clipPath><g clip-path="url(#m)"><path fill="#000000" d="M58.062,46.584c-1.588,0-2.881-1.292-2.881-2.882c0-1.589,1.293-2.882,2.881-2.882      c1.59,0,2.883,1.293,2.883,2.882C60.945,45.292,59.652,46.584,58.062,46.584z M58.062,42.82c-0.485,0-0.881,0.396-0.881,0.882      c0,0.486,0.396,0.882,0.881,0.882c0.486,0,0.883-0.396,0.883-0.882C58.945,43.216,58.55,42.82,58.062,42.82z"></path></g></g><g><defs><rect id="l" x="24.774" y="19.771" width="50.451" height="60.459"></rect></defs><clipPath id="k"><use xlink:href="#l" overflow="visible"></use></clipPath><g clip-path="url(#k)"><path fill="#000000" d="M64.083,45.584c1.039,0,1.883-0.842,1.883-1.882c0-1.039-0.844-1.882-1.883-1.882      s-1.882,0.843-1.882,1.882C62.201,44.742,63.044,45.584,64.083,45.584"></path></g></g><g><defs><rect id="j" x="24.774" y="19.771" width="50.451" height="60.459"></rect></defs><clipPath id="i"><use xlink:href="#j" overflow="visible"></use></clipPath><g clip-path="url(#i)"><path fill="#000000" d="M64.083,46.584c-1.589,0-2.882-1.292-2.882-2.882c0-1.589,1.293-2.882,2.882-2.882      c1.59,0,2.883,1.293,2.883,2.882C66.966,45.292,65.673,46.584,64.083,46.584z M64.083,42.82c-0.485,0-0.882,0.396-0.882,0.882      c0,0.486,0.396,0.882,0.882,0.882s0.883-0.396,0.883-0.882C64.966,43.216,64.568,42.82,64.083,42.82z"></path></g></g><g><defs><rect id="h" x="24.774" y="19.771" width="50.451" height="60.459"></rect></defs><clipPath id="g"><use xlink:href="#h" overflow="visible"></use></clipPath><g clip-path="url(#g)"><path fill="#000000" d="M46.024,45.584c1.04,0,1.882-0.842,1.882-1.882c0-1.039-0.842-1.882-1.882-1.882      c-1.039,0-1.882,0.843-1.882,1.882C44.143,44.742,44.985,45.584,46.024,45.584"></path></g></g><g><defs><rect id="f" x="24.774" y="19.771" width="50.451" height="60.459"></rect></defs><clipPath id="e"><use xlink:href="#f" overflow="visible"></use></clipPath><g clip-path="url(#e)"><path fill="#000000" d="M46.024,46.584c-1.589,0-2.882-1.292-2.882-2.882c0-1.589,1.293-2.882,2.882-2.882      c1.59,0,2.882,1.293,2.882,2.882C48.906,45.292,47.614,46.584,46.024,46.584z M46.024,42.82c-0.486,0-0.882,0.396-0.882,0.882      c0,0.486,0.396,0.882,0.882,0.882s0.882-0.396,0.882-0.882C46.906,43.216,46.511,42.82,46.024,42.82z"></path></g></g><g><defs><rect id="d" x="24.774" y="19.771" width="50.451" height="60.459"></rect></defs><clipPath id="c"><use xlink:href="#d" overflow="visible"></use></clipPath><g clip-path="url(#c)"><path fill="#000000" d="M40.005,45.584c1.04,0,1.882-0.842,1.882-1.882c0-1.039-0.842-1.882-1.882-1.882      c-1.039,0-1.882,0.843-1.882,1.882C38.123,44.742,38.966,45.584,40.005,45.584"></path></g></g><g><defs><rect id="b" x="24.774" y="19.771" width="50.451" height="60.459"></rect></defs><clipPath id="a"><use xlink:href="#b" overflow="visible"></use></clipPath><g clip-path="url(#a)"><path fill="#000000" d="M40.005,46.584c-1.589,0-2.882-1.292-2.882-2.882c0-1.589,1.293-2.882,2.882-2.882      c1.589,0,2.882,1.293,2.882,2.882C42.887,45.292,41.594,46.584,40.005,46.584z M40.005,42.82c-0.486,0-0.882,0.396-0.882,0.882      c0,0.486,0.396,0.882,0.882,0.882c0.486,0,0.882-0.396,0.882-0.882C40.887,43.216,40.491,42.82,40.005,42.82z"></path></g></g></g></g></svg>