<svg xmlns="http://www.w3.org/2000/svg" xmlns:xlink="http://www.w3.org/1999/xlink" version="1.1" x="0px" y="0px" viewBox="0 0 100 100" enable-background="new 0 0 100 100" xml:space="preserve"><g><path fill="none" d="M63.148,10.907c-0.783,0-1.296,0.528-1.296,1.221c0,0.679,0.497,1.221,1.266,1.221h0.016   c0.798,0,1.297-0.542,1.297-1.221C64.415,11.435,63.932,10.907,63.148,10.907z"></path><rect x="61.987" y="14.315" fill="none" width="2.292" height="7.371"></rect><path d="M46.824,43.972l-1.93-1.552c0-3.333-1.203-0.967-4.771-0.967h-0.323c-3.568,0-4.772-2.366-4.772,0.967l-1.929,1.563   L22.376,56.707c-1.119,1.307-0.964,3.271,0.343,4.389c0.588,0.501,1.306,0.746,2.022,0.746c0.878,0,1.75-0.369,2.368-1.09   l5.214-6.281l-0.925,12.56h2.229v0.221l-2.274,24.346c-0.159,1.712,1.099,3.23,2.812,3.391C34.263,94.995,34.361,95,34.458,95   c1.589,0,2.946-1.211,3.096-2.823l2.201-23.568h0.412l2.2,23.568C42.519,93.789,43.876,95,45.463,95   c0.098,0,0.195-0.005,0.294-0.013c1.712-0.16,2.969-1.679,2.811-3.391l-2.275-24.346V67.03h2.229l-0.926-12.571l5.382,6.297   c0.617,0.721,1.49,1.091,2.368,1.091c0.717,0,1.435-0.245,2.021-0.746c1.307-1.118,1.463-3.083,0.343-4.391L46.824,43.972z"></path><circle cx="40.044" cy="32.54" r="6.832"></circle><path d="M63.142,5c-8.412,0-15.229,4.792-15.229,10.705c0,2.997,1.756,5.702,4.578,7.645c-1.13,2.296-3.103,4.244-3.103,4.244   c2.699-0.114,5.434-1.035,7.708-2.065c1.854,0.565,3.896,0.881,6.046,0.881c8.41,0,15.229-4.792,15.229-10.705S71.552,5,63.142,5z    M64.279,21.686h-2.292v-7.371h2.292V21.686z M63.134,13.35h-0.016c-0.769,0-1.266-0.542-1.266-1.221   c0-0.693,0.513-1.221,1.296-1.221s1.267,0.528,1.282,1.221C64.431,12.808,63.932,13.35,63.134,13.35z"></path></g></svg>