<svg xmlns="http://www.w3.org/2000/svg" xmlns:xlink="http://www.w3.org/1999/xlink" version="1.1" x="0px" y="0px" viewBox="0 0 100 100" enable-background="new 0 0 100 100" xml:space="preserve"><g><g><g><defs><rect id="z" x="24.774" y="19.771" width="50.451" height="60.459"></rect></defs><clipPath id="y"><use xlink:href="#z" overflow="visible"></use></clipPath><g clip-path="url(#y)"><path fill="#000000" d="M42.081,80.229h-0.002c-1.587,0-2.88-1.291-2.882-2.877l-0.002-5.959      c-5.37-1.182-8.651-4.85-8.653-9.808l-0.001-1.442L29.1,60.145c-2.385,0-4.324-1.938-4.325-4.321      c0-0.623-0.001-0.908,4.32-12.074l-0.001-0.902c-0.002-6.153,2.397-11.944,6.758-16.307c4.359-4.363,10.148-6.767,16.3-6.769      c12.724,0,23.07,10.343,23.074,23.057c0.002,4.857-1.49,9.486-4.32,13.423l0.008,21.086c0,1.587-1.291,2.881-2.877,2.886      L42.081,80.229z M42.079,77.229v1.5V77.229L42.079,77.229z M32.041,57.143c0.397,0,0.779,0.158,1.061,0.439      c0.282,0.281,0.439,0.662,0.439,1.061l0.001,2.943c0.002,5.461,5.146,6.76,7.358,7.066c0.742,0.102,1.295,0.736,1.295,1.483      l0.002,7.093l25.716-0.008l-0.009-21.464c0-0.323,0.105-0.642,0.302-0.901c2.632-3.498,4.021-7.657,4.021-12.027      c-0.004-11.06-9.004-20.058-20.064-20.058c-5.359,0.001-10.395,2.093-14.188,5.889c-3.794,3.796-5.882,8.833-5.88,14.185      l0.001,1.183c0,0.186-0.034,0.369-0.101,0.542C31,47.135,28.009,54.863,27.775,55.861c0.026,0.716,0.609,1.281,1.322,1.281      H32.041L32.041,57.143z"></path></g></g></g><g><path fill="#000000" d="M39.644,47.729c-0.552,0-1-0.448-1-1v-7.417c0-0.552,0.448-1,1-1c0.553,0,1,0.448,1,1v7.417    C40.644,47.28,40.196,47.729,39.644,47.729z"></path></g><g><path fill="#000000" d="M60.729,46.799c-0.551,0-1-0.448-1-1v-6.488c0-0.552,0.449-1,1-1c0.553,0,1,0.448,1,1v6.488    C61.729,46.351,61.279,46.799,60.729,46.799z"></path></g><g><g><defs><rect id="x" x="24.774" y="19.771" width="50.451" height="60.459"></rect></defs><clipPath id="w"><use xlink:href="#x" overflow="visible"></use></clipPath><g clip-path="url(#w)"><path fill="#000000" d="M39.644,51.218c0.936,0,1.693-0.759,1.693-1.693c0-0.936-0.758-1.694-1.693-1.694      s-1.693,0.759-1.693,1.694C37.95,50.459,38.708,51.218,39.644,51.218"></path></g></g><g><defs><rect id="v" x="24.774" y="19.771" width="50.451" height="60.459"></rect></defs><clipPath id="u"><use xlink:href="#v" overflow="visible"></use></clipPath><g clip-path="url(#u)"><path fill="#000000" d="M39.644,52.218c-1.485,0-2.693-1.208-2.693-2.693c0-1.486,1.208-2.694,2.693-2.694      s2.693,1.208,2.693,2.694C42.337,51.01,41.129,52.218,39.644,52.218z M39.644,48.83c-0.383,0-0.693,0.312-0.693,0.694      c0,0.382,0.311,0.693,0.693,0.693s0.693-0.312,0.693-0.693C40.337,49.142,40.026,48.83,39.644,48.83z"></path></g></g><g><defs><rect id="t" x="24.774" y="19.771" width="50.451" height="60.459"></rect></defs><clipPath id="s"><use xlink:href="#t" overflow="visible"></use></clipPath><g clip-path="url(#s)"><path fill="#000000" d="M60.729,45.799c0.937,0,1.693-0.759,1.693-1.693c0-0.936-0.758-1.694-1.693-1.694      c-0.935,0-1.693,0.759-1.693,1.694C59.034,45.04,59.793,45.799,60.729,45.799"></path></g></g><g><defs><rect id="r" x="24.774" y="19.771" width="50.451" height="60.459"></rect></defs><clipPath id="q"><use xlink:href="#r" overflow="visible"></use></clipPath><g clip-path="url(#q)"><path fill="#000000" d="M60.729,46.799c-1.484,0-2.693-1.208-2.693-2.693c0-1.486,1.209-2.694,2.693-2.694      c1.485,0,2.693,1.208,2.693,2.694C63.422,45.59,62.214,46.799,60.729,46.799z M60.729,43.411c-0.383,0-0.693,0.312-0.693,0.694      s0.312,0.693,0.693,0.693c0.383,0,0.693-0.312,0.693-0.693C61.422,43.723,61.109,43.411,60.729,43.411z"></path></g></g></g><g><path fill="#000000" d="M60.4,40.311H39.971c-0.552,0-1-0.448-1-1c0-0.552,0.448-1,1-1H60.4c0.553,0,1,0.448,1,1    C61.4,39.863,60.953,40.311,60.4,40.311z"></path></g><g><g><defs><rect id="p" x="24.774" y="19.771" width="50.451" height="60.459"></rect></defs><clipPath id="o"><use xlink:href="#p" overflow="visible"></use></clipPath><g clip-path="url(#o)"><path fill="#000000" d="M50.187,33.337c0.936,0,1.693-0.759,1.693-1.694s-0.758-1.694-1.693-1.694s-1.694,0.759-1.694,1.694      S49.251,33.337,50.187,33.337"></path></g></g><g><defs><rect id="n" x="24.774" y="19.771" width="50.451" height="60.459"></rect></defs><clipPath id="m"><use xlink:href="#n" overflow="visible"></use></clipPath><g clip-path="url(#m)"><path fill="#000000" d="M50.187,34.337c-1.485,0-2.694-1.208-2.694-2.694s1.209-2.694,2.694-2.694      c1.484,0,2.693,1.208,2.693,2.694S51.671,34.337,50.187,34.337z M50.187,30.949c-0.383,0-0.694,0.312-0.694,0.694      c0,0.382,0.312,0.694,0.694,0.694c0.381,0,0.693-0.312,0.693-0.694C50.88,31.261,50.568,30.949,50.187,30.949z"></path></g></g></g><g><path fill="#000000" d="M54.167,47.729c-0.552,0-1-0.448-1-1v-7.417c0-0.552,0.448-1,1-1c0.554,0,1,0.448,1,1v7.417    C55.167,47.28,54.721,47.729,54.167,47.729z"></path></g><g><path fill="#000000" d="M50.187,39.795c-0.553,0-1-0.448-1-1v-5.34c0-0.553,0.447-1,1-1c0.551,0,1,0.447,1,1v5.34    C51.188,39.347,50.738,39.795,50.187,39.795z"></path></g><g><path fill="#000000" d="M46.622,47.729c-0.552,0-1-0.448-1-1v-7.417c0-0.552,0.448-1,1-1c0.553,0,1,0.448,1,1v7.417    C47.622,47.28,47.175,47.729,46.622,47.729z"></path></g><g><g><defs><rect id="l" x="24.774" y="19.771" width="50.451" height="60.459"></rect></defs><clipPath id="k"><use xlink:href="#l" overflow="visible"></use></clipPath><g clip-path="url(#k)"><path fill="#000000" d="M54.167,48.302c0.937,0,1.692-0.759,1.692-1.693c0-0.936-0.758-1.694-1.692-1.694      s-1.692,0.759-1.692,1.694C52.475,47.543,53.23,48.302,54.167,48.302"></path></g></g><g><defs><rect id="j" x="24.774" y="19.771" width="50.451" height="60.459"></rect></defs><clipPath id="i"><use xlink:href="#j" overflow="visible"></use></clipPath><g clip-path="url(#i)"><path fill="#000000" d="M54.167,49.302c-1.483,0-2.692-1.208-2.692-2.693c0-1.486,1.209-2.694,2.692-2.694      c1.485,0,2.692,1.208,2.692,2.694C56.859,48.093,55.652,49.302,54.167,49.302z M54.167,45.914c-0.382,0-0.692,0.312-0.692,0.694      c0,0.382,0.312,0.693,0.692,0.693c0.383,0,0.692-0.312,0.692-0.693C54.859,46.226,54.55,45.914,54.167,45.914z"></path></g></g><g><defs><rect id="h" x="24.774" y="19.771" width="50.451" height="60.459"></rect></defs><clipPath id="g"><use xlink:href="#h" overflow="visible"></use></clipPath><g clip-path="url(#g)"><path fill="#000000" d="M46.622,49.76c0.936,0,1.694-0.759,1.694-1.693c0-0.936-0.759-1.694-1.694-1.694      s-1.693,0.759-1.693,1.694C44.929,49.001,45.687,49.76,46.622,49.76"></path></g></g><g><defs><rect id="f" x="24.774" y="19.771" width="50.451" height="60.459"></rect></defs><clipPath id="e"><use xlink:href="#f" overflow="visible"></use></clipPath><g clip-path="url(#e)"><path fill="#000000" d="M46.622,50.76c-1.485,0-2.693-1.208-2.693-2.693c0-1.486,1.208-2.694,2.693-2.694      s2.693,1.208,2.693,2.694C49.315,49.552,48.107,50.76,46.622,50.76z M46.622,47.372c-0.382,0-0.693,0.312-0.693,0.694      c0,0.382,0.312,0.693,0.693,0.693c0.383,0,0.694-0.311,0.694-0.693C47.316,47.684,47.005,47.372,46.622,47.372z"></path></g></g></g><g><path fill="#000000" d="M63.702,30.647h-6.253c-0.553,0-1-0.448-1-1c0-0.552,0.447-1,1-1h6.253c0.552,0,1,0.448,1,1    C64.702,30.199,64.254,30.647,63.702,30.647z"></path></g><g><path fill="#000000" d="M66.464,33.928H57.45c-0.554,0-1-0.448-1-1c0-0.553,0.446-1,1-1h9.014c0.552,0,1,0.447,1,1    C67.464,33.479,67.016,33.928,66.464,33.928z"></path></g><g><g><defs><rect id="d" x="24.774" y="19.771" width="50.451" height="60.459"></rect></defs><clipPath id="c"><use xlink:href="#d" overflow="visible"></use></clipPath><g clip-path="url(#c)"><path fill="#000000" d="M54.751,32.107c-0.515,0-0.931,0.416-0.931,0.93c0,0.514,0.416,0.93,0.931,0.93s0.931-0.417,0.931-0.93      C55.682,32.524,55.266,32.107,54.751,32.107"></path></g></g><g><defs><rect id="b" x="24.774" y="19.771" width="50.451" height="60.459"></rect></defs><clipPath id="a"><use xlink:href="#b" overflow="visible"></use></clipPath><g clip-path="url(#a)"><path fill="#000000" d="M54.751,28.827c-0.515,0-0.931,0.417-0.931,0.93c0,0.513,0.416,0.93,0.931,0.93s0.931-0.416,0.931-0.93      C55.682,29.243,55.266,28.827,54.751,28.827"></path></g></g></g></g></svg>