<svg xmlns="http://www.w3.org/2000/svg" xmlns:xlink="http://www.w3.org/1999/xlink" version="1.1" x="0px" y="0px" viewBox="0 0 100 100" enable-background="new 0 0 100 100" xml:space="preserve"><path fill-rule="evenodd" clip-rule="evenodd" d="M81.5,61.5c-6.075,0-11-4.926-11-11s4.925-11,11-11s11,4.925,11,11  S87.575,61.5,81.5,61.5z M81.5,30.5c-6.075,0-11-4.925-11-11s4.925-11,11-11s11,4.925,11,11S87.575,30.5,81.5,30.5z M50.5,92.5  c-6.075,0-11-4.926-11-11c0-6.075,4.925-11,11-11s11,4.925,11,11C61.5,87.574,56.575,92.5,50.5,92.5z M50.5,61.5  c-6.075,0-11-4.926-11-11s4.925-11,11-11s11,4.925,11,11S56.575,61.5,50.5,61.5z M50.5,30.5c-6.075,0-11-4.925-11-11s4.925-11,11-11  s11,4.925,11,11S56.575,30.5,50.5,30.5z M19.5,92.5c-6.075,0-11-4.926-11-11c0-6.075,4.925-11,11-11s11,4.925,11,11  C30.5,87.574,25.575,92.5,19.5,92.5z M19.5,61.5c-6.075,0-11-4.926-11-11s4.925-11,11-11s11,4.925,11,11S25.575,61.5,19.5,61.5z   M19.5,30.5c-6.075,0-11-4.925-11-11s4.925-11,11-11s11,4.925,11,11S25.575,30.5,19.5,30.5z M81.5,70.5c6.075,0,11,4.925,11,11  c0,6.074-4.925,11-11,11s-11-4.926-11-11C70.5,75.425,75.425,70.5,81.5,70.5z"></path></svg>