<svg xmlns="http://www.w3.org/2000/svg" xmlns:xlink="http://www.w3.org/1999/xlink" version="1.1" x="0px" y="0px" viewBox="0 0 100 100" enable-background="new 0 0 100 100" xml:space="preserve"><g><g><path fill-rule="evenodd" clip-rule="evenodd" fill="#000000" d="M48.069,34.105c3.846,0,6.963-3.173,6.963-7.088    s-3.117-7.09-6.963-7.09c-3.847,0-6.964,3.174-6.964,7.09S44.223,34.105,48.069,34.105z M61.003,62.465c0,0,0-21.477,0-22.282    c0-2.006-3.98-4.051-3.98-4.051H39.115c0,0-3.979,2.045-3.979,4.051c0,0.776,0,22.282,0,22.282s1.073,2.024,1.99,2.024    c2.205,0,1.989-2.024,1.989-2.024V46.259c0,0,0.852-3.769,1.99,0c0.142,0.717,0,46.588,0,46.588s0.512,2.027,1.99,2.027    c3.467,0,3.979-2.027,3.979-2.027s-0.047-25.415,0-26.333c0.817-1.476,1.237-1.471,2.023,0    c-0.004,0.873-0.032,26.333-0.032,26.333s0.765,2.027,3.978,2.027c1.482,0,1.989-2.027,1.989-2.027s0.029-45.64-0.011-46.588    c0.914-3.965,2.001,0,2.001,0v16.206c0,0-0.664,2.024,1.99,2.024C60.135,64.489,61.003,62.465,61.003,62.465z M65.977,32.08    c3.845,0,6.964-3.174,6.964-7.09c0-3.915-3.119-7.088-6.964-7.088c-3.847,0-6.964,3.173-6.964,7.088    C59.013,28.906,62.13,32.08,65.977,32.08z M76.919,62.465c1.121,0,1.987-2.026,1.987-2.026s0-21.476,0-22.281    c0-2.007-3.978-4.052-3.978-4.052H57.022c0,0,5.969,2.045,5.969,4.052c0,0.776,0,20.257,0,20.257l-0.824,6.076l-3.154,2.024    v26.333c0,0,0.512,2.027,1.99,2.027c3.467,0,3.977-2.027,3.977-2.027s-0.044-27.438,0-28.358c0.82-1.476,1.238-1.472,2.022,0    c-0.001,0.871-0.033,28.358-0.033,28.358s0.767,2.027,3.98,2.027c1.484,0,1.991-2.027,1.991-2.027s0.026-47.665-0.013-48.614    c0.916-3.964,2.001,0,2.001,0v16.205C74.929,60.438,74.262,62.465,76.919,62.465z M81.892,30.055c3.846,0,6.965-3.175,6.965-7.09    c0-3.915-3.119-7.09-6.965-7.09c-3.844,0-6.963,3.175-6.963,7.09C74.929,26.88,78.048,30.055,81.892,30.055z M90.848,32.08H76.919    l3.979,4.052v22.282l-1.105,5.063l-4.863,1.012v28.358c0,0,0.511,2.027,1.99,2.027c3.467,0,3.979-2.027,3.979-2.027    s-0.047-27.438,0-28.358c0.817-1.476,1.239-1.472,2.021,0c-0.002,0.871-0.03,28.358-0.03,28.358s0.766,2.027,3.978,2.027    c1.484,0,1.991-2.027,1.991-2.027s0.027-49.692-0.013-50.639c0.916-3.966,2.004,0,2.004,0v18.23c0,0-0.667,2.026,1.986,2.026    c1.121,0,1.991-2.026,1.991-2.026s0-23.502,0-24.307C94.825,34.124,90.848,32.08,90.848,32.08z M32.152,30.055    c3.845,0,6.963-3.175,6.963-7.09c0-3.915-3.118-7.09-6.963-7.09c-3.846,0-6.964,3.175-6.964,7.09    C25.188,26.88,28.306,30.055,32.152,30.055z M33.148,60.438V38.157l3.008-3.438l5.375-1.531l-2.416-1.107H23.199    c0,0-3.979,2.044-3.979,4.052c0,0.776,0,24.307,0,24.307s1.072,2.026,1.989,2.026c2.205,0,1.991-2.026,1.991-2.026v-18.23    c0,0,0.851-3.77,1.989,0c0.143,0.716,0,50.639,0,50.639s0.512,2.027,1.99,2.027c3.468,0,3.979-2.027,3.979-2.027    s-0.046-27.438,0-28.358c0.818-1.476,1.237-1.472,2.023,0c-0.004,0.871-0.032,28.358-0.032,28.358s0.764,2.027,3.978,2.027    c1.484,0,1.989-2.027,1.989-2.027V66.515l-3.979-1.011L33.148,60.438z M18.224,32.08c1.965,0,3.738-0.828,5.004-2.159    c1.041-0.753,1.611-1.531,1.959-1.893c-1.059-2.411-2.035-4.768-2.088-8.1c-1.256-1.254-2.978-2.027-4.876-2.027    c-3.846,0-6.964,3.173-6.964,7.088C11.26,28.906,14.378,32.08,18.224,32.08z M23.199,64.489l-3.158-0.405l-2.813-3.417V34.105    H9.271c0,0-3.979,2.045-3.979,4.052c0,0.776,0,24.308,0,24.308s1.072,2.024,1.989,2.024c2.206,0,1.99-2.024,1.99-2.024V44.234    c0,0,0.851-3.771,1.989,0c0.143,0.715,0,48.614,0,48.614s0.513,2.027,1.991,2.027c3.466,0,3.978-2.027,3.978-2.027    s-0.045-25.415,0-26.333c0.818-1.476,1.239-1.471,2.023,0c-0.003,0.873-0.032,26.333-0.032,26.333s0.765,2.027,3.979,2.027    c0.055-1.455,0-2.027,0-2.027V64.489z"></path></g></g></svg>