<svg xmlns="http://www.w3.org/2000/svg" xmlns:xlink="http://www.w3.org/1999/xlink" version="1.1" x="0px" y="0px" viewBox="0 0 100 100" enable-background="new 0 0 100 100" xml:space="preserve"><g><circle cx="24.83" cy="50.378" r="19.83"></circle><path d="M75.17,30.548c-10.934,0-19.83,8.896-19.83,19.83s8.895,19.83,19.83,19.83c10.934,0,19.83-8.896,19.83-19.83   S86.104,30.548,75.17,30.548z M75.17,66.396c-8.831,0-16.018-7.185-16.018-16.017s7.187-16.017,16.018-16.017   s16.018,7.186,16.018,16.017S84.001,66.396,75.17,66.396z"></path><path d="M26.512,25.156c0.307,0,0.613-0.123,0.84-0.367c0.07-0.076,7.182-7.589,19.771-7.589c0.121,0,0.245,0.001,0.368,0.002   c10.137,0.117,16.37,4.085,18.564,5.766l-5.58,0.104c-0.632,0.011-1.134,0.532-1.121,1.165c0.012,0.623,0.521,1.123,1.144,1.123   c0.007,0,0.015,0,0.021,0l9.637-0.18l-0.926-9.002c-0.067-0.629-0.642-1.089-1.256-1.021c-0.629,0.064-1.086,0.627-1.021,1.255   l0.486,4.723c-2.481-1.923-9.091-6.095-19.922-6.221c-13.839-0.131-21.522,7.975-21.844,8.318   c-0.429,0.465-0.402,1.188,0.061,1.617C25.954,25.056,26.232,25.156,26.512,25.156z"></path><path d="M72.79,75.134c-0.087,0.078-8.853,7.844-21.741,7.662c-10.133-0.117-16.365-4.082-18.562-5.764l5.573-0.105   c0.633-0.012,1.135-0.533,1.123-1.164c-0.013-0.633-0.531-1.125-1.166-1.123l-9.637,0.18l0.928,9.002   c0.061,0.589,0.558,1.027,1.137,1.027c0.039,0,0.078-0.002,0.119-0.007c0.629-0.065,1.086-0.627,1.021-1.255l-0.487-4.726   c2.48,1.922,9.092,6.097,19.924,6.223c0.135,0.002,0.267,0.003,0.4,0.003c13.535,0,22.516-7.908,22.895-8.249   c0.472-0.423,0.511-1.146,0.09-1.614C73.982,74.752,73.262,74.711,72.79,75.134z"></path></g></svg>