<svg xmlns="http://www.w3.org/2000/svg" xmlns:xlink="http://www.w3.org/1999/xlink" version="1.1" x="0px" y="0px" viewBox="0 0 100 100" enable-background="new 0 0 100 100" xml:space="preserve"><g><path fill="none" d="M62.782,18.868c-0.804,0-1.377,0.588-1.377,1.41c0,0.804,0.557,1.409,1.377,1.409   c0.838,0,1.395-0.604,1.395-1.409C64.161,19.456,63.62,18.868,62.782,18.868z"></path><path fill="none" d="M62.999,10.907c-1.1,0-2.028,0.31-2.585,0.635l0.526,1.688c0.403-0.279,1.021-0.465,1.532-0.465   c0.776,0.031,1.131,0.387,1.131,0.93c0,0.527-0.403,1.021-0.897,1.61c-0.698,0.837-0.961,1.641-0.914,2.431l0.017,0.403h2.059   v-0.278c-0.016-0.697,0.216-1.301,0.791-1.937c0.588-0.649,1.315-1.424,1.315-2.602C65.974,12.038,65.044,10.907,62.999,10.907z"></path><path d="M29.544,32.078c0,0,2.233-0.447,4.02-1.547c-0.196,0.635-0.302,1.31-0.302,2.01c0,3.774,3.06,6.832,6.833,6.832   c3.773,0,6.833-3.058,6.833-6.832c0-3.774-3.059-6.832-6.833-6.832c-2.223,0-4.191,1.066-5.439,2.709   c-1.046-0.758-3.221-1.828-5.141,0.527c0,0-1.6,2.03-4.138,0.224C25.376,29.169,25.983,32.83,29.544,32.078z"></path><path d="M46.977,43.972l-1.929-1.552c0-3.333-1.203-0.967-4.771-0.967h-0.177h-0.008h-0.177c-3.568,0-4.771-2.366-4.771,0.967   l-1.929,1.552L22.325,56.71c-1.119,1.308-0.964,3.272,0.345,4.391c0.587,0.501,1.305,0.746,2.021,0.746   c0.878,0,1.751-0.37,2.368-1.091l5.382-6.297L29.826,75.48h3.918v0.22l-2.274,15.896c-0.159,1.712,1.099,3.23,2.811,3.391   C34.379,94.995,34.477,95,34.574,95c1.588,0,2.944-1.211,3.096-2.823l2.2-15.118h0.222h0.008h0.223l2.2,15.118   C42.673,93.789,44.03,95,45.618,95c0.097,0,0.194-0.005,0.293-0.013c1.711-0.16,2.97-1.679,2.81-3.391L46.448,75.7v-0.22h3.918   L47.75,54.459l5.383,6.297c0.617,0.721,1.49,1.091,2.368,1.091c0.716,0,1.435-0.245,2.021-0.746   c1.308-1.118,1.463-3.083,0.344-4.391L46.977,43.972z"></path><path d="M63.194,5c-8.412,0-15.231,4.792-15.231,10.705c0,2.997,1.756,5.702,4.579,7.645c-1.13,2.296-3.104,4.244-3.104,4.244   c2.7-0.114,5.436-1.035,7.709-2.065c1.854,0.565,3.896,0.881,6.047,0.881c8.41,0,15.229-4.792,15.229-10.705S71.604,5,63.194,5z    M62.782,21.686c-0.82,0-1.377-0.604-1.377-1.409c0-0.821,0.573-1.41,1.377-1.41c0.838,0,1.379,0.588,1.395,1.41   C64.177,21.082,63.62,21.686,62.782,21.686z M64.658,15.924c-0.575,0.636-0.807,1.24-0.791,1.937v0.278h-2.059l-0.017-0.403   c-0.047-0.79,0.216-1.594,0.914-2.431c0.494-0.589,0.897-1.083,0.897-1.61c0-0.542-0.354-0.899-1.131-0.93   c-0.511,0-1.129,0.186-1.532,0.465l-0.526-1.688c0.557-0.325,1.485-0.635,2.585-0.635c2.045,0,2.975,1.13,2.975,2.415   C65.974,14.5,65.246,15.274,64.658,15.924z"></path></g></svg>